<?xml version="1.0" encoding="UTF-8" standalone="no"?>
<!-- Created with Inkscape (http://www.inkscape.org/) -->

<svg
   xmlns:dc="http://purl.org/dc/elements/1.1/"
   xmlns:cc="http://creativecommons.org/ns#"
   xmlns:rdf="http://www.w3.org/1999/02/22-rdf-syntax-ns#"
   xmlns:svg="http://www.w3.org/2000/svg"
   xmlns="http://www.w3.org/2000/svg"
   xmlns:sodipodi="http://sodipodi.sourceforge.net/DTD/sodipodi-0.dtd"
   xmlns:inkscape="http://www.inkscape.org/namespaces/inkscape"
   version="1.1"
   id="svg3783"
   width="170.66667"
   height="170.66667"
   viewBox="0 0 170.66667 170.66667"
   sodipodi:docname="icon_on.svg"
   inkscape:version="0.92.2 2405546, 2018-03-11">
  <metadata
     id="metadata3789">
    <rdf:RDF>
      <cc:Work
         rdf:about="">
        <dc:format>image/svg+xml</dc:format>
        <dc:type
           rdf:resource="http://purl.org/dc/dcmitype/StillImage" />
        <dc:title></dc:title>
      </cc:Work>
    </rdf:RDF>
  </metadata>
  <defs
     id="defs3787" />
  <sodipodi:namedview
     pagecolor="#ffffff"
     bordercolor="#666666"
     borderopacity="1"
     objecttolerance="10"
     gridtolerance="10"
     guidetolerance="10"
     inkscape:pageopacity="0"
     inkscape:pageshadow="2"
     inkscape:window-width="1920"
     inkscape:window-height="1056"
     id="namedview3785"
     showgrid="false"
     inkscape:zoom="5.0449217"
     inkscape:cx="85.333336"
     inkscape:cy="85.333336"
     inkscape:window-x="0"
     inkscape:window-y="24"
     inkscape:window-maximized="0"
     inkscape:current-layer="svg3783" />
  <path
     style="fill:#0f1e4a;fill-opacity:1;stroke-width:1.33333337"
     d="m 33.164919,159.46102 c -1.031679,-2.01666 -5.2922,-11.63333 -9.467825,-21.37036 -9.2187,-21.49686 -9.614051,-26.46693 -4.031566,-50.682071 2.953786,-12.812634 4.225805,-16.299431 5.833264,-15.989863 1.506223,0.290072 2.671781,4.08686 4.360345,14.203747 1.267534,7.594316 2.642714,14.145953 3.055954,14.559197 0.413241,0.41324 1.495148,-0.20238 2.404237,-1.368041 0.909091,-1.165663 12.602891,-8.23498 25.986227,-15.709594 17.8398,-9.96356 24.33333,-14.246075 24.33333,-16.047952 0,-1.351759 -2.19033,-7.822384 -4.8674,-14.379168 l -4.86739,-11.921423 3.64911,-9.147238 c 2.00701,-5.030981 4.56462,-10.168833 5.68359,-11.417448 2.71573,-3.030405 20.416345,-13.493317 21.312025,-12.597636 0.38821,0.3882063 -0.35907,3.494232 -1.66061,6.90228 -2.66828,6.986797 -2.31971,7.557059 6.08402,9.953347 6.29908,1.796159 24.08888,1.697303 31.5252,-0.175184 5.69696,-1.434512 6.23388,-1.326243 9.46969,1.909569 3.40501,3.405008 3.4122,3.457928 0.97597,7.176091 -1.34988,2.060181 -5.38554,6.600876 -8.96814,10.090431 l -6.5138,6.344645 h 8.08887 c 7.06549,0 8.08887,0.321351 8.08887,2.539971 0,1.581588 -2.15545,3.803153 -5.71254,5.887743 -7.32772,4.294329 -17.54492,15.214129 -20.21544,21.605572 -4.93569,11.81278 -8.26084,62.766095 -4.40535,67.506055 0.91667,1.12695 3.76667,2.85756 6.33333,3.8458 5.96136,2.29529 6.6939,3.47216 5.06672,8.13988 -1.3243,3.79889 -1.35657,3.80832 -13.03389,3.80832 -7.79263,0 -12.13478,-0.5572 -12.98793,-1.66667 -0.70489,-0.91666 -2.93968,-7.96666 -4.96621,-15.66666 -2.02653,-7.7 -4.095105,-14.7464 -4.596835,-15.65867 -0.64935,-1.18067 -5.31699,0.87806 -16.19705,7.14397 -8.40665,4.84144 -15.78814,9.27118 -16.40333,9.84384 -0.61518,0.57268 2.83404,2.35655 7.66493,3.96418 8.37532,2.78712 8.74399,3.08829 7.93418,6.48148 -0.4671,1.95718 -1.10173,4.00853 -1.41029,4.55853 -0.30856,0.55 -10.71019,1 -23.11475,1 H 35.040699 Z M 119.77303,49.577307 c 0.55588,-0.899424 -0.74881,-3.075575 -3.10737,-5.182952 l -4.06556,-3.632577 3.5194,-2.681358 c 2.69757,-2.055231 3.15829,-3.05858 1.97298,-4.296796 -1.20628,-1.260119 -2.49446,-1.070011 -5.85661,0.864309 -2.8312,1.628852 -4.49028,1.972733 -4.835,1.002163 -0.28865,-0.812672 -1.36278,-2.612672 -2.38697,-4 -1.44663,-1.95956 -2.22265,-2.167066 -3.47773,-0.929927 -1.26493,1.246848 -1.23545,2.510205 0.13582,5.820753 1.53638,3.709151 1.47816,4.38118 -0.47418,5.473767 -2.637055,1.475767 -2.978815,5.112994 -0.48042,5.112994 0.95983,0 2.88952,-0.836782 4.28819,-1.859515 2.26482,-1.656071 3.05531,-1.437257 7.2253,2 5.19244,4.280047 6.14401,4.571383 7.54215,2.309139 z"
     id="path3793"
     inkscape:connector-curvature="0" />
</svg>
